<svg xmlns="http://www.w3.org/2000/svg" viewBox="0 0 215.53 215.34"><defs><style>.cls-1{fill:#fff;}</style></defs><title>a</title><g id="Layer_2" data-name="Layer 2"><g id="a_letter_Image" data-name="a_letter Image"><path class="cls-1" d="M50,14.48A115.24,115.24,0,0,0,10.53,61c-4.32,9.35-17.11,40.44-6.29,77.79A109,109,0,0,0,36.53,190c32.56,28.06,71.66,25.69,80,25,12.88-2.78,22.89-12.42,25.29-24.28,3-15-6.64-31.39-23.29-36.72-1.61-.26-4-.63-7-1-3.65-.45-5.84-.51-7.79-.66A63,63,0,0,1,90.53,150a37.83,37.83,0,0,1-14.75-9.25c-2.87-2.75-8.26-7.92-10.55-16.16-.8-2.88-.94-5.13-.45-16.59.32-7.43.69-13.72,1-18.5A35.19,35.19,0,0,1,71.53,79c12.16-15.2,33.25-14.65,36.75-14.5h0c1.08-.08,13.12-.53,21.75,3,11.7,4.79,18.83,17.67,18.84,17.69h0s.69,2.45,1.66,5.81a25.89,25.89,0,0,1,1,6.41l0,.29h0l0,92.3c3.81,13.55,15.18,23.41,28.42,24.81,15.53,1.65,30.83-8.67,35.58-24.81V96a104,104,0,0,0-16-48A111.44,111.44,0,0,0,160,12c-46.84-24.91-97.51-3.76-105-.5Z"/></g></g></svg>