<svg xmlns="http://www.w3.org/2000/svg" viewBox="0 0 214.53 369.22"><defs><style>.cls-1{fill:#fff;}</style></defs><title>Asset 1</title><g id="Layer_2" data-name="Layer 2"><g id="P_letter_Image" data-name="P_letter Image"><path class="cls-1" d="M0,91.06v246c.35,19.54,17.22,33.85,34,32,14.29-1.57,26.46-14.63,27-31q1-125,2-250c12.19-17.69,32.45-27.15,52-24,2.65.43,22.91,4,34,23,8,13.64,9.73,32.7,0,48-8.53,13.42-22,17.85-26,19-28.4-1-48.23,15.54-48.84,31-.46,11.72,10.11,22.14,18.84,27,18.71,10.35,38.12.05,39.53-.73A89.24,89.24,0,0,0,176,193.06c17.83-14.16,24.83-31.36,29-42,3.46-8.81,17.71-45.14,3-83-14.62-37.64-52.69-66.46-96-68C63.66-1.65,18.44,31,3,80.06Z"/></g></g></svg>