<svg xmlns="http://www.w3.org/2000/svg" viewBox="0 0 210.46 365.7"><defs><style>.cls-1{fill:#fff;}</style></defs><title>p</title><g id="Layer_2" data-name="Layer 2"><g id="P_letter_Image" data-name="P_letter Image"><path class="cls-1" d="M0,104.24v236c4.47,17.4,21,27.85,36,25,11.65-2.21,21.24-12.15,24-25v-236c1.45-28.27,26-48.75,51-46,18.63,2,40.05,20.91,40,46,0,18.64-11.87,35.9-30,43.5-5.08,1.24-9.25,2.14-12.22,2.75L100,152.24l-7.67,3.33a40.36,40.36,0,0,0-5.5,4.83A25.54,25.54,0,0,0,82,167.24h0c-.17.38-1.35,3-2.17,5.5a35,35,0,0,0-1.33,5.5c-.72,5,1,9.31,2,12.25a27.75,27.75,0,0,0,7.25,11.75c6.82,6.43,15.24,7.19,22.5,7.75,3,.23,16.71,1.07,34.75-5.75a99.82,99.82,0,0,0,33-20.5c19.49-18.58,25.4-40.4,28-50.5,2.78-10.79,10.48-40.74-4.5-73.5-17.34-37.91-52.18-51.42-57.83-53.5-37.63-13.9-78.62-3.43-106,20C11.85,48.33,4.27,76.68,2,87.24Z"/></g></g></svg>