<svg xmlns="http://www.w3.org/2000/svg" viewBox="0 0 154.13 293.58"><defs><style>.cls-1{fill:#fff;}</style></defs><title>t</title><g id="Layer_2" data-name="Layer 2"><g id="t_letter_Image" data-name="t_letter Image"><path class="cls-1" d="M65,33V185c-.06,3.24-.08,21.18,14,35,18.23,17.88,43.32,12.39,45,12,18.2.82,31.59,16.65,30,33-1.4,14.38-14.13,26.43-30,27a106.63,106.63,0,0,1-49-3,108.63,108.63,0,0,1-37-20C2.87,239.5.33,193.84,0,185V27C3.47,11.52,16.58.49,31,0,48.09-.54,64,13.83,65,33Z"/></g></g></svg>